<?xml version="1.0" standalone="no"?>
<!DOCTYPE svg PUBLIC "-//W3C//DTD SVG 20010904//EN"
 "http://www.w3.org/TR/2001/REC-SVG-20010904/DTD/svg10.dtd">
<svg version="1.0" xmlns="http://www.w3.org/2000/svg"
 width="727.000000pt" height="1280.000000pt" viewBox="0 0 727.000000 1280.000000"
 preserveAspectRatio="xMidYMid meet">
<metadata>
Created by potrace 1.15, written by Peter Selinger 2001-2017
</metadata>
<g transform="translate(0.000000,1280.000000) scale(0.100000,-0.100000)"
fill="white" stroke="none">
<path d="M4610 12596 l0 -133 -1086 -2224 c-598 -1223 -1143 -2341 -1211
-2484 -470 -980 -1208 -2704 -2105 -4920 l-93 -230 -36 3 c-34 3 -37 1 -43
-29 -3 -18 -5 -33 -4 -34 2 -1 154 -32 338 -68 184 -36 634 -125 1000 -197
366 -72 824 -162 1017 -201 612 -120 1054 -207 1187 -234 71 -14 132 -27 135
-30 4 -5 -21 -238 -35 -321 l-6 -31 74 -12 c114 -18 619 -60 726 -61 32 0 32
0 32 -49 l0 -48 -317 -7 c-483 -10 -1225 -24 -1968 -37 -369 -6 -718 -14 -778
-17 l-107 -7 187 -200 c104 -111 231 -247 283 -303 l95 -103 240 -34 c296 -43
727 -98 980 -124 355 -38 414 -43 1850 -156 385 -30 789 -62 899 -71 221 -18
260 -15 372 36 86 39 387 219 469 281 150 113 305 294 423 492 68 114 148 284
139 293 -3 4 -282 1 -619 -5 -337 -6 -865 -16 -1173 -21 -308 -5 -624 -12
-702 -14 l-143 -5 0 44 c0 38 3 45 20 45 11 0 194 -7 407 -16 433 -17 450 -16
638 43 138 44 252 91 380 156 78 40 115 67 172 124 176 178 321 471 496 1008
69 211 257 808 289 915 19 67 16 351 -6 470 -77 426 -285 991 -649 1765 -46
99 -201 423 -344 720 -143 297 -318 671 -388 830 -222 501 -522 1080 -807
1555 l-128 215 5 275 c3 151 10 770 15 1375 5 605 13 1283 16 1508 l6 407 -71
0 -71 0 0 -134z"/>
</g>
</svg>
