<?xml version="1.0" encoding="utf-8"?>
<!-- Generator: Adobe Illustrator 24.0.1, SVG Export Plug-In . SVG Version: 6.00 Build 0)  -->
<svg version="1.1" id="Layer_1" xmlns="http://www.w3.org/2000/svg" xmlns:xlink="http://www.w3.org/1999/xlink" x="0px" y="0px"
	 viewBox="0 0 1080 1080" style="enable-background:new 0 0 1080 1080;" xml:space="preserve">
<style type="text/css">
	.st0{fill:#EDEDED;}
	.st1{fill:#F22222;}
	.st2{fill:#303175;}
</style>
<g>
	<path class="st0" d="M360.64,436.44c-2.86,1.98-4.65,3.27-6.49,4.5c-11.73,7.86-23.57,15.57-35.11,23.7
		c-2.45,1.72-3.81,4.98-5.67,7.53c3.1,0.12,6.36,0.92,9.28,0.24c11.54-2.69,22.95-5.95,34.45-8.8c16.43-4.06,32.89-7.98,49.36-11.87
		c12.52-2.96,25.07-5.84,37.62-8.68c9.41-2.13,18.85-4.11,28.26-6.22c12.38-2.78,24.7-5.85,37.12-8.39
		c14.76-3.02,29.62-5.54,44.4-8.42c17.72-3.45,35.38-7.17,53.11-10.57c16.92-3.25,33.79-7.55,50.88-8.98
		c19.46-1.63,38.4-6.69,58.13-6.8c13.74-0.07,27.45-3.61,41.19-5.43c6.71-0.89,13.47-1.45,20.22-2.06
		c8.57-0.77,17.15-1.37,25.72-2.15c13.33-1.22,26.64-2.56,39.97-3.81c1.65-0.16,3.33-0.08,4.99-0.18
		c8.76-0.52,17.54-1.68,26.27-1.37c4.93,0.18,9.67-0.19,14.54-0.43c22.05-1.09,44.14-1.43,66.21-2.23
		c12.75-0.46,25.49-1.82,38.23-1.82c12.74,0,25.49,1.12,38.23,1.91c4.87,0.3,6.38,3.43,3.48,7.25
		c-11.54,15.21-22.37,31.07-35.05,45.27c-12.47,13.96-26.85,26.28-42.91,36.18c-15.53,9.57-31.11,19.16-47.25,27.64
		c-10.78,5.66-22.48,9.66-33.96,13.88c-8.51,3.13-17.19,6.16-26.05,7.93c-13.53,2.7-26.58,7.95-40.7,7.81
		c-3.23-0.03-6.45,1.48-9.72,1.92c-5.89,0.8-11.8,1.45-17.72,1.93c-9.57,0.78-19.15,1.88-28.72,1.86c-7.33-0.01-14.65-0.26-22-0.16
		c-10.15,0.13-20.32-2.06-30.49-3.25c-1.48-0.17-2.97-0.45-4.45-0.39c-13.66,0.48-27.05-1.45-40.47-3.76
		c-7.63-1.31-15.48-1.31-23.18-2.33c-10.3-1.36-20.55-3.14-30.82-4.71c-3.1-0.47-6.23-1.24-9.33-1.15
		c-9.84,0.28-19.45-0.87-29.12-2.76c-6.84-1.33-14.03-0.71-21.03-1.35c-36.03-3.33-72.16-0.86-108.19-2.33
		c-11.84-0.48-23.17,0.55-34.69,2.19c-4.41,0.63-9.01-0.18-13.48,0.24c-11.18,1.05-22.31,2.48-33.48,3.65
		c-8.22,0.86-16.46,1.45-24.68,2.31c-6.24,0.65-12.46,1.56-18.7,2.3c-5.08,0.6-10.18,1.04-15.25,1.7
		c-13.43,1.74-26.85,3.54-40.27,5.37c-5.89,0.8-11.77,1.7-17.64,2.61c-9.95,1.55-19.96,2.84-29.83,4.79
		c-10.38,2.06-20.64,4.74-30.94,7.21c-11.26,2.71-22.5,5.52-33.77,8.21c-1.88,0.45-3.85,0.47-6.37-0.34
		c3.93-3.37,7.68-6.99,11.84-10.05c18.74-13.79,37.04-28.29,56.59-40.84c17.8-11.43,36.52-21.72,55.72-30.59
		c17.24-7.96,35.43-14.18,53.68-19.52c14.39-4.21,29.51-5.94,44.32-8.72C357.62,435.96,358.42,436.22,360.64,436.44z"/>
	<path class="st1" d="M992.34,501.42c-7.57,6.91-14.64,14.46-22.8,20.58c-15,11.24-30.1,22.52-46.14,32.14
		c-15.59,9.34-32.09,17.39-48.81,24.56c-15.18,6.51-31.02,11.65-46.88,16.32c-11.07,3.26-22.62,5.01-34.05,6.89
		c-11.9,1.96-23.88,3.48-35.87,4.76c-7.75,0.83-15.58,1.04-23.38,1.26c-27.29,0.78-54.58-0.14-81.67-3.21
		c-22.88-2.59-45.57-6.82-68.33-10.47c-18.67-2.99-37.31-6.24-55.97-9.3c-12.22-2-24.42-4.21-36.7-5.72
		c-11.99-1.48-24.06-2.64-36.12-3.17c-23.08-1-46.19-1.36-69.29-2.19c-4.43-0.16-8.97-2.32-13.21-1.75
		c-26.37,3.59-52.85,0.87-79.25,1.88c-18.55,0.71-37.1,1.76-55.63,2.82c-21.17,1.22-42.41,1.87-63.45,4.28
		c-10.54,1.21-20.95,3.33-31.63,2.85c-0.9-0.04-1.8-0.1-3.88-0.21c4.74-2.12,8.27-4.07,12.04-5.3c5.46-1.78,11.1-3.03,16.66-4.54
		c8.71-2.36,17.36-4.97,26.14-7.08c13.01-3.13,26.11-5.88,39.16-8.88c1.75-0.4,3.36-1.37,5.06-2c1.84-0.68,3.67-1.54,5.58-1.85
		c5.54-0.9,11.12-1.6,16.7-2.31c9.99-1.28,19.99-2.5,29.98-3.75c9.5-1.2,19-2.41,28.51-3.61c1.15-0.15,2.31-0.35,3.46-0.37
		c43.08-0.68,86.16-1.57,129.24-1.89c14.23-0.11,28.81-0.42,42.62,2.37c13.89,2.8,27.59,3.2,41.51,3.65
		c9.54,0.31,19.23,1.07,28.5,3.17c6.87,1.56,13.59,2.41,20.58,2.83c12.68,0.75,25.31,2.37,37.96,3.63
		c6.74,0.67,13.47,1.41,20.21,2.04c8.23,0.77,16.47,2,24.71,2.08c27,0.27,54,0.42,80.99-0.07c9.85-0.18,19.73-1.89,29.48-3.54
		c14.84-2.5,29.61-5.41,44.35-8.41c9.56-1.95,19.01-4.45,28.53-6.57c8.49-1.89,17.05-3.5,25.52-5.45c2.87-0.66,5.53-2.19,8.37-3.03
		c8.42-2.5,16.95-4.64,25.3-7.33c17.67-5.68,35.3-11.5,52.87-17.49c8.11-2.76,16.05-6.06,24.08-9.07c1.33-0.5,2.73-0.8,4.09-1.2
		C991.76,500.34,992.05,500.88,992.34,501.42z"/>
	<path class="st0" d="M401.17,735.25c1.3-13.48,2.79-26.94,3.85-40.44c1.52-19.48,2.42-39,4.22-58.45
		c0.68-7.34,2.47-14.75,4.94-21.71c2.58-7.28,8.19-12.17,16.83-14.68c0.7,5.6,1.96,10.65,1.84,15.67
		c-0.36,15.42-0.97,30.84-1.99,46.23c-0.98,14.68-1.93,29.42-4.1,43.95c-2.28,15.2-5.59,30.28-9.31,45.2
		c-1.48,5.96-4.63,11.78-8.12,16.92c-6.38,9.4-16.03,8.23-21.21-1.78c-5.4-10.42-11.78-20.37-16.62-31.04
		c-4.28-9.45-6.81-19.67-10.54-29.39c-2-5.2-4.79-10.12-7.46-15.03c-0.61-1.13-2.19-1.73-3.99-3.07
		c-2.25,10.28-4.28,19.78-6.4,29.25c-2.25,10.03-4.7,20.01-6.86,30.06c-1.91,8.9-3.64,17.84-5.26,26.8c-0.9,4.97-3.98,8.1-8.3,9.81
		c-4.74,1.86-10.61-5.11-9.34-11.01c2.3-10.69,4.99-21.3,7.1-32.02c1.85-9.38,3.06-18.89,4.68-28.31c1.68-9.78,3.63-19.51,5.23-29.3
		c1.12-6.85,2.27-13.73,2.62-20.64c0.45-8.81,0.1-17.66,0.11-26.49c0.01-10.14,7.36-16.42,17.56-14.75
		c4.24,0.69,5.85-2.15,7.85-4.84c3.73-5.02,7.39-5.52,11.45-1.08c1.28,1.4,1.93,4.28,1.5,6.18c-1.32,5.82-3.44,11.45-4.95,17.23
		c-0.6,2.3-1.09,4.99-0.49,7.19c4.29,15.47,8.29,31.06,13.53,46.22c4.76,13.76,10.97,27.01,16.57,40.48
		c0.69,1.65,1.51,3.25,2.27,4.87C399.28,736.58,400.22,735.91,401.17,735.25z"/>
	<path class="st0" d="M196.36,650.31c-1.86,11.55-3.65,23.11-5.6,34.65c-1.19,7.01-2.77,13.95-3.93,20.96
		c-1.48,8.96-2.85,17.94-4,26.95c-1.9,14.92-8.42,27.46-19.01,37.99c-0.43,0.43-1.09,0.63-2.27,1.29
		c-0.88-5.37-2.44-10.36-2.35-15.32c0.25-13.58,0.7-27.2,2.03-40.71c1.21-12.31,3.81-24.47,5.55-36.73c1-7.03,1.15-14.2,2.38-21.18
		c0.69-3.92,2.41-7.8,4.37-11.3c1.74-3.11,2.31-4.83-1.7-6.36c-18.24-6.94-14.37-6.45-14.72-23.82c-0.09-4.46,2.57-6.61,6.98-6.68
		c10.81-0.16,21.25,2.23,30.92,6.62c10.34,4.69,20.52,10.05,29.99,16.29c18.06,11.9,30.14,28.34,33.76,50.12
		c1.29,7.74-0.33,15.46-3.65,22.35c-6.31,13.08-13.45,25.77-20.21,38.64c-0.61,1.16-1.07,2.42-1.46,3.68
		c-1.06,3.37,0.06,5.13,3.61,3.86c6.48-2.33,12.82-5.06,19.27-7.45c1.24-0.46,3.12-0.69,4.12-0.08c4.63,2.85,5.65,12.75,1.24,15.63
		c-4.18,2.74-9.08,4.5-13.84,6.16c-3.89,1.36-8.02,2.08-12.09,2.82c-2.89,0.53-5.92,0.34-8.77,1c-2.25,0.52-4.96,1.28-6.37,2.89
		c-9.89,11.26-22.05,18.88-36.78,20.91c-5.42,0.75-11.54-2.02-17.05-4.01c-3.38-1.22-3.68-4.68-1.53-7.53
		c4.37-5.81,8.68-10.8,16.98-12.45c13.49-2.68,23.79-11.36,31.56-22.73c5.43-7.94,11.14-15.74,15.91-24.07
		c4.76-8.31,9.19-16.93,9.17-27.02c-0.03-14.03-5.77-25.2-17.27-32.96c-7.44-5.01-15.56-9-23.38-13.45
		C197.6,649.61,196.98,649.96,196.36,650.31z"/>
	<path class="st2" d="M522.04,326.53c3.85-4.5,7.42-9.28,11.59-13.47c17.98-18.07,39-31.67,63.33-39.14
		c13.98-4.29,28.61-7.17,43.16-8.71c17.45-1.86,35.13-2.1,52.71-2.12c10.04-0.01,20.1,1.73,30.13,2.86
		c10.83,1.22,21.67,2.51,32.46,4.07c4.49,0.65,8.86,2.08,13.28,3.16c-0.03,0.48-0.05,0.96-0.08,1.44c-2.45,0.17-4.91,0.34-8.58,0.6
		c2.25,6.11,3.33,12.48,6.78,17.07c2.02,2.69,7.77,2.77,11.93,3.64c7.6,1.59,15.31,2.68,22.89,4.38c8.56,1.92,17.07,4.1,25.5,6.52
		c4.94,1.42,9.67,3.55,14.5,5.36c-0.13,0.66-0.26,1.32-0.39,1.98c-5.6-0.53-11.18-1.26-16.79-1.53c-8.91-0.43-17.83-0.47-26.74-0.81
		c-4.62-0.18-9.23-0.62-13.84-1.02c-2.14-0.19-4.25-0.79-6.38-0.82c-7.33-0.11-14.67-0.22-21.99-0.01
		c-19.57,0.57-39.17,0.79-58.7,2.13c-19.11,1.31-38.12,3.93-57.2,5.77c-12.53,1.21-25.12,1.93-37.65,3.12
		c-11.37,1.09-22.7,2.57-34.05,3.78c-4.12,0.44-8.27,0.52-12.4,0.83c-10.87,0.81-21.73,1.65-32.6,2.48
		C522.62,327.57,522.33,327.05,522.04,326.53z M746.49,293.22c-1.65-6.05-2.81-10.7-4.24-15.27c-0.32-1.03-1.6-2.51-2.43-2.51
		c-7.47,0.05-14.96,0.12-22.41,0.69c-14.66,1.11-29.3,2.45-43.94,3.85c-10.7,1.02-21.46,1.78-32.04,3.58
		c-12.84,2.19-25.58,5.07-38.22,8.22c-7.18,1.79-14.13,4.61-21.08,7.25c-1.58,0.6-2.71,2.36-4.05,3.59
		c0.18,0.42,0.36,0.83,0.53,1.25c5.06,0,10.46,1.15,15.12-0.23c11.39-3.36,22.96-2.94,34.53-3.52c7.92-0.4,15.81-1.45,23.7-2.32
		c16.6-1.84,33.16-4.18,49.8-5.5c10.43-0.83,20.98-0.25,31.47-0.12C737.32,292.23,741.38,292.8,746.49,293.22z"/>
	<path class="st0" d="M611.33,773.74c-2.18,2.47-4.38,4.94-6.54,7.43c-3.92,4.51-7.63,9.21-11.76,13.51
		c-6.86,7.12-16.32,7.61-23.31,0.57c-8.65-8.7-14.1-19.13-16.87-31.41c-6.77-30-2.66-60.32-3.65-90.47
		c-0.22-6.71,0.3-13.79,2.33-20.1c1.31-4.09,5.86-7.23,9.27-10.46c0.49-0.47,3.12,0.55,4.11,1.54c2.46,2.45,4.41,5.4,6.79,7.94
		c8.04,8.6,4.96,19.12,4.94,29.02c-0.01,5.58-1.13,11.16-1.66,16.75c-0.66,6.91-1.3,13.82-1.79,20.74c-0.11,1.6,0.44,3.25,0.67,4.87
		c0.38,2.61,0.79,5.22,1.11,7.85c1.47,12.14,2.55,24.34,4.61,36.37c0.51,2.96,3.68,6.51,6.53,7.77c4.18,1.86,8.39-0.69,10.68-4.44
		c4.8-7.9,9.15-16.07,13.53-24.22c1.48-2.76,2.79-5.69,3.66-8.69c1.27-4.38,2.31-8.86,3.04-13.36c1-6.2,1.28-12.52,2.46-18.67
		c2.33-12.19,4.56-24.43,7.76-36.4c3.13-11.71,7.23-23.17,11.26-34.61c1.64-4.66,10.97-7.39,15.17-4.85
		c0.67,0.41,1.26,1.62,1.22,2.43c-0.27,5.95-0.68,11.89-1.13,17.83c-0.1,1.31-0.71,2.59-0.73,3.9c-0.27,14.96-2.81,29.58-5.72,44.22
		c-2.74,13.75-4.18,27.76-6.44,41.62c-1.63,9.94-4.06,19.77-5.38,29.75c-0.64,4.8-0.25,10.03,1,14.71
		c1.06,3.96,0.87,6.88-1.59,10.02c-2.74,3.5-4.99,7.4-7.86,10.76c-1.46,1.71-3.79,3.58-5.81,3.69c-3.2,0.17-7.98-6-8.07-9.73
		c-0.16-6.66-0.03-13.33-0.08-19.99c-0.01-1.74-0.21-3.47-0.32-5.21C612.25,774.19,611.79,773.96,611.33,773.74z"/>
	<path class="st0" d="M1000.29,649.94c-6.41,2.57-11.99,4.64-17.42,7.03c-7.99,3.51-16.08,6.86-23.74,11.01
		c-7.11,3.85-6.35,11.91-8.12,18.46c-2.2,8.14-3.75,16.48-6.19,24.54c-1.83,6.04-6.04,10.23-12.56,11.57
		c-3.2,0.66-5.83,0.09-6.36-3.6c-0.47-3.26-1.22-6.73-0.57-9.84c1.58-7.61,3.61-15.17,6-22.57c1.7-5.27,1.56-10.2,0.7-15.63
		c-1.1-6.99-1.21-14.28-0.58-21.33c0.21-2.31,3.72-5.01,6.33-6.27c4.13-2,6.31-4.84,7.65-9.1c4.04-12.78,9.4-25.23,12.3-38.24
		c2.01-9.02,5.18-17.26,8.82-25.57c1.21-2.76,0.55-6.41,0.45-9.64c-0.08-2.83,0.36-4.58,3.76-5.11c5.59-0.86,10.09-3.83,13.99-8.05
		c3.36-3.65,7.14-7,11.1-10c2.48-1.88,5.51-3.01,8.64-0.36c3.24,2.76,2.11,5.61,0.58,8.48c-3.6,6.74-2.94,12.76,5.15,16.12
		c5.9,2.45,8.91,7.4,8.93,14.72c0.04,16.91,1.14,33.82,1.82,50.73c0.02,0.5-0.13,1.18,0.14,1.47c5.07,5.37,2.18,10.34,0.39,16.18
		c-1.55,5.08-0.15,11.16,0.41,16.75c1.26,12.74,3.13,25.55-2.05,37.83c-1.76,4.18-4.48,8.11-7.44,11.58
		c-2.61,3.06-5.43,2.35-6.97-1.31c-1.09-2.58-2.13-5.37-2.29-8.12c-0.86-15.07-1.42-30.15-2.13-45.23
		C1000.94,654.52,1000.6,652.6,1000.29,649.94z M998.1,615.56c0-0.66-0.05-1.33,0.01-1.99c0.8-9.67,0.09-18.99-7.18-26.37
		c-1.52-1.55-3.95-2.21-5.95-3.28c-0.99,2.03-2.18,3.98-2.92,6.1c-2.04,5.86-3.46,11.97-5.9,17.64c-3.58,8.3-8.11,16.19-11.71,24.48
		c-2.09,4.81-0.98,6.34,4.26,5.79c9.17-0.95,18.28-2.54,27.36-4.11c0.84-0.15,1.88-2.14,1.93-3.31
		C998.21,625.53,998.09,620.54,998.1,615.56z"/>
	<path class="st0" d="M507.11,760.8c-0.69-11.23-1.42-22.47-2.05-33.71c-0.18-3.2-1.73-4.1-4.59-3.29
		c-11.49,3.25-22.29,8.02-33.03,13.3c-7.24,3.56-10.78,7.47-11.43,15.62c-0.63,7.84-3.4,15.5-5.02,23.28
		c-1.23,5.86-3.36,11.09-8.18,14.98c-2.72,2.2-5.34,4.07-8.96,1.94c-3.73-2.19-5.57-5.48-4.63-9.63
		c2.45-10.81,5.36-21.51,7.74-32.34c0.55-2.49-0.23-5.31-0.6-7.95c-0.25-1.75-1.18-3.43-1.24-5.16c-0.17-5.16,0.11-10.33-0.12-15.48
		c-0.2-4.43,1.75-7.3,5.94-7.76c5.66-0.62,7.88-3.62,8.83-8.93c0.56-3.14,3.16-5.87,4-9.01c3.28-12.32,6.14-24.76,9.33-37.1
		c0.77-2.98,1.89-5.96,3.4-8.63c3.03-5.35,5.95-10.5,4.68-17.13c-0.79-4.16,1.5-6.53,5.76-7.89c3.96-1.27,7.83-3.42,11.15-5.96
		c4.2-3.21,7.76-7.25,11.68-10.86c2.46-2.27,5.29-2.92,8.13-0.76c3.16,2.41,3,5.42,1.61,8.9c-1.2,3-1.98,6.25-2.38,9.46
		c-0.13,1.02,1.34,2.6,2.47,3.35c3.3,2.19,7.18,3.66,10.05,6.27c1.83,1.66,3.06,4.82,3.18,7.38c0.91,18.39,1.44,36.79,2.19,55.18
		c0.06,1.41,0.43,3.12,1.31,4.12c3.04,3.42,2.69,6.39,0.52,10.33c-3.55,6.45-1.89,13.51-1.02,20.44c1.58,12.53,3.19,25.2-1.84,37.3
		c-1.73,4.15-4.92,7.8-7.93,11.25c-1.03,1.18-3.62,1.47-5.4,1.28c-0.69-0.08-1.36-2.59-1.6-4.06c-1.01-6.18-1.86-12.39-2.77-18.59
		C506.54,760.88,506.83,760.84,507.11,760.8z M466.2,710.2c3.13-0.37,5.19-0.56,7.24-0.86c7.33-1.08,14.64-2.39,21.99-3.23
		c5.03-0.57,7.06-2.3,7.13-7.57c0.08-6.15-0.65-12.4,0.18-18.44c1.3-9.56-2.5-16.65-8.84-23.07c-2.63-2.67-5.05-2.47-6.35,0.98
		c-0.63,1.67-0.56,3.6-1.08,5.33c-1.42,4.7-2.53,9.57-4.6,13.98c-3.22,6.84-7.31,13.27-10.69,20.04
		C469.29,701.12,468.09,705.22,466.2,710.2z"/>
	<path class="st0" d="M139.94,631.49c3.4,9.5,3.71,17.77,1.57,26.54c-2.22,9.12-2.88,18.61-4.57,27.87
		c-1.99,10.9-4.4,21.73-6.57,32.61c-2.52,12.63-4.95,25.28-7.5,37.91c-2.29,11.36-4.72,22.69-7.03,34.04
		c-1.02,5.02-2.03,10.05-2.82,15.11c-0.87,5.54-4.85,8.66-9.08,11.21c-1.2,0.72-4.59-0.36-5.73-1.69
		c-4.85-5.65-3.79-12.66-2.59-19.07c2.67-14.3,6.29-28.41,9.15-42.68c1.68-8.41,2.76-16.96,3.87-25.47
		c0.46-3.53-2.31-4.13-4.91-3.84c-3.94,0.45-7.84,1.24-11.72,2.07c-6.64,1.43-13.42,2.49-19.82,4.68c-5.57,1.9-10.88,4.84-15.9,7.96
		c-1.73,1.07-2.84,3.98-3.21,6.21c-0.95,5.86-1.69,11.8-1.8,17.72c-0.06,3.37,0.82,6.98,2.24,10.04c0.45,0.96,4.02,0.53,6.17,0.61
		c2.12,0.08,4.26,0.01,6.38,0c-0.36,2.17-0.04,4.85-1.21,6.42c-3.94,5.29-8.28,10.3-12.75,15.15c-1.25,1.35-3.39,2.11-5.26,2.62
		c-7.45,2.05-11.67-1.07-11.75-8.87c-0.14-12.5,0.13-25-0.16-37.49c-0.07-3.14-1.06-6.61-2.65-9.31
		c-4.98-8.45-4.68-14.42,1.62-21.65c1.27-1.46,2.59-3.29,2.88-5.11c1-6.2,1.51-12.47,2.27-18.7c0.74-6.07,1-12.26,2.48-18.15
		c1.88-7.48,2.07-14.66,0.04-22.1c-3.12-11.45,8.18-24.14,19.77-22.48c3.86,0.55,7.79,4.88,7.5,9.32
		c-0.45,7.08-1.09,14.2-2.46,21.15c-2.77,14.11-6.07,28.12-9.16,42.17c-0.69,3.14,0.68,4.17,3.74,4.12
		c13.65-0.2,27.31-0.3,40.96-0.37c9.34-0.05,11.01-0.78,12.5-9.82c2.04-12.38,3.15-24.91,4.58-37.38c0.17-1.46,0.3-3.19-0.31-4.44
		c-2.85-5.91,0.08-8.9,4.74-12.16c4.31-3.01,7.68-7.35,11.56-11C136.36,633.98,137.97,632.98,139.94,631.49z"/>
	<path class="st0" d="M917.7,733.98c1.63,3.41,3.44,6.1,4.12,9.05c0.43,1.86-0.13,5.06-1.45,6.04c-8.35,6.2-16.89,12.2-25.75,17.64
		c-1.74,1.07-6.06,0.36-7.65-1.16c-6.06-5.78-11.92-11.89-17.07-18.5c-7.44-9.56-14.18-19.66-21.28-29.48
		c-0.5-0.7-1.55-1.01-2.89-1.84c-0.98,6.62-2.32,12.71-2.68,18.86c-0.45,7.81-0.06,15.66-0.13,23.49c-0.06,6.32-2.5,7.97-8.58,5.97
		c-1.26-0.42-2.53-0.83-3.8-1.23c-2.42-0.77-6.49-0.99-6.94-2.39c-1.02-3.13-0.43-6.87-0.15-10.33c0.34-4.27,1.11-8.51,1.57-12.77
		c1.26-11.83,2.47-23.66,3.68-35.49c0.17-1.65,0.32-3.31,0.32-4.97c-0.04-22.9,1.26-45.73,4.17-68.44c0.32-2.48,2.12-5.38,4.13-6.9
		c3.66-2.76,7.83-5.04,12.11-6.66c1.67-0.63,4.84,0.43,6.24,1.82c3.55,3.55,3.88,8.32,2.9,13.07c-3.12,15.07-6.33,30.12-9.49,45.18
		c-0.14,0.65-0.25,1.36-0.11,1.98c0.38,1.65,0.91,3.27,1.38,4.9c1.41-0.74,3.2-1.15,4.15-2.28c4.2-4.92,8.27-9.96,12.18-15.11
		c8.15-10.7,16.32-21.4,24.19-32.3c4.42-6.13,8.35-12.56,4.21-20.72c-0.42-0.82,1.58-3.92,3.01-4.44
		c6.84-2.46,13.87-4.37,20.82-6.52c2.81-0.87,3.63,0.11,4.11,3.01c1.67,10.08-4.69,17.22-8.73,25.21
		c-9.76,19.31-24.36,35.14-37.99,51.55c-6.07,7.31-5.14,13.55-1.98,20.94c3.52,8.22,6.41,16.73,10.37,24.71
		c2.68,5.41,6.52,10.32,10.26,15.12c2.8,3.59,6.53,3.35,10.23,0.93C909.32,739.25,913.5,736.65,917.7,733.98z"/>
	<path class="st2" d="M1048.86,345.77c-1.34,6.03-5.31,8.25-10.31,8.08c-9.25-0.3-18.49-1.17-27.73-1.8c-0.33-0.02-0.66-0.06-1-0.08
		c-15.57-0.68-31.14-1.35-46.72-2.03c-15.57-0.68-31.15-1.29-46.71-2.05c-11.74-0.57-23.61-0.43-35.19-2.14
		c-25.06-3.69-50.16-1.23-75.23-1.58c-10.64-0.15-21.3,2.37-31.98,3.39c-4.95,0.47-10.01-0.1-14.95,0.45
		c-11.81,1.3-23.58,2.97-35.36,4.53c-8.34,1.1-16.68,2.23-25.01,3.41c-4.25,0.6-8.47,1.38-12.72,2.03
		c-13.54,2.05-27.14,3.81-40.62,6.19c-8.6,1.52-17.01,4.14-25.58,5.91c-7.56,1.56-15.26,2.39-22.81,3.97
		c-7.36,1.54-14.62,3.57-21.91,5.45c-15.13,3.9-30.23,7.89-45.37,11.72c-2.43,0.61-5.01,0.61-7.52,0.9
		c-0.09-0.43-0.18-0.86-0.27-1.29c5.19-1.91,10.31-4.02,15.57-5.7c15.14-4.83,30.27-9.73,45.53-14.15
		c12.74-3.69,25.67-6.72,38.5-10.08c11.35-2.97,22.61-6.32,34.03-8.93c13.08-2.99,26.3-5.37,39.47-7.96
		c9.58-1.89,19.14-3.98,28.79-5.43c8.32-1.25,16.78-1.54,25.14-2.59c6.05-0.76,12-2.38,18.05-3.08c9.87-1.14,19.77-2.18,29.69-2.64
		c15.25-0.71,30.53-0.95,45.8-1.29c17.29-0.38,34.6-1.31,51.87-0.81c20.21,0.59,40.39,2.23,60.55,3.84
		c16.67,1.33,33.35,2.88,49.92,5.11c13.78,1.85,27.42,4.82,41.11,7.35C1046.84,344.63,1047.7,345.24,1048.86,345.77z"/>
	<path class="st0" d="M672.49,676.48c0.63-9.25,1.17-17.13,1.72-25.01c0.27-3.96,0.71-7.92,0.8-11.88c0.06-2.54,0.96-3.73,3.54-3.53
		c6.75,0.53,13.5,1.12,20.26,1.5c1.7,0.1,3.46-0.35,5.14-0.78c3.26-0.83,6.5-2.66,9.71-2.58c10.75,0.27,21.48,1.1,32.2,2.01
		c1.11,0.09,2.87,2.11,2.94,3.3c0.31,5.64,0.07,11.32,0.17,16.98c0.05,2.63-1.1,3.51-3.6,3.47c-5.33-0.08-10.66-0.09-15.99,0.03
		c-3.63,0.08-5.75,1.76-3.35,5.33c4.96,7.37,2.96,15.54,2.61,23.3c-0.36,8.19-2.36,16.31-3.57,24.47
		c-1.4,9.47-3.11,18.92-3.96,28.45c-1.1,12.36-1.76,24.79-2.05,37.2c-0.14,5.9,1.2,11.81,1.53,17.74c0.1,1.81-0.68,3.78-1.47,5.5
		c-0.44,0.95-1.65,1.63-2.63,2.23c-9.51,5.8-13.59,3.68-15.18-9.38c-1.44-11.81-2.12-23.78-2.06-35.68
		c0.04-7.51,2.07-15.02,3.18-22.53c0.27-1.8,0.52-3.61,0.59-5.42c0.7-17.56,1.36-35.13,2.04-52.69c0.03-0.66,0.1-1.33,0.24-1.98
		c2.41-11.27,0.51-13.2-10.2-9.57c-5.46,1.85-10.64,4.52-15.96,6.8C677.52,674.47,675.86,675.11,672.49,676.48z"/>
	<path class="st0" d="M810.09,622.68c-1.64,12.03-3.35,23.91-4.86,35.82c-0.92,7.22-1.45,14.48-2.31,21.7
		c-0.6,5.09-1.54,10.13-2.2,15.22c-0.68,5.24-1.29,10.49-1.76,15.75c-1.35,15.32-2.85,30.63-3.79,45.97
		c-0.4,6.52-1.51,13.24,1.98,19.58c0.83,1.5,0.6,4.83-0.51,5.92c-3.29,3.22-7.16,5.91-11.07,8.39c-0.86,0.54-3.35-0.2-4.2-1.15
		c-4.92-5.48-9.12-11.08-8.49-19.38c0.7-9.28-0.31-18.68,0.28-27.98c0.78-12.36,2.73-24.64,3.46-37c0.31-5.28-1.15-10.67-1.85-16
		c-0.52-3.91-2.13-7.98-1.5-11.67c2.23-13.05,5.14-25.98,8.02-38.9c0.35-1.59,1.73-3.48,3.16-4.23c8.04-4.21,16.24-8.13,24.4-12.1
		C809.21,622.45,809.75,622.66,810.09,622.68z"/>
</g>
</svg>
